<?xml version="1.0" encoding="UTF-8" standalone="no"?>
<!DOCTYPE svg PUBLIC "-//W3C//DTD SVG 1.1//EN" "http://www.w3.org/Graphics/SVG/1.1/DTD/svg11.dtd">
<svg width="100%" height="100%" viewBox="0 0 756 756" version="1.1" xmlns="http://www.w3.org/2000/svg" xmlns:xlink="http://www.w3.org/1999/xlink" xml:space="preserve" xmlns:serif="http://www.serif.com/" style="fill-rule:evenodd;clip-rule:evenodd;stroke-linejoin:round;stroke-miterlimit:2;">
    <g transform="matrix(0.966079,0,0,0.966079,43.278,209.402)">
        <g transform="matrix(0.748994,0,0,1.18855,14.327,-69.981)">
            <path d="M376.738,301.282C555.834,301.282 701.237,304.014 701.237,372.553C701.237,441.093 555.834,452.463 376.738,452.463C197.642,452.463 52.238,441.093 52.238,372.553C52.238,304.014 197.642,301.282 376.738,301.282Z" style="fill:rgb(176,156,144);"/>
        </g>
        <g transform="matrix(0.108153,0,0,0.274268,12.708,274.589)">
            <path d="M376.738,301.282C555.834,301.282 701.237,304.014 701.237,372.553C701.237,441.093 555.834,452.463 376.738,452.463C197.642,452.463 52.238,441.093 52.238,372.553C52.238,304.014 197.642,301.282 376.738,301.282Z" style="fill:rgb(176,156,144);"/>
        </g>
        <g transform="matrix(0.248303,0,0,0.497694,506.32,190.385)">
            <path d="M376.738,301.282C555.834,301.282 870.847,308.334 870.847,376.873C870.847,445.412 555.834,452.463 376.738,452.463C197.642,452.463 52.238,441.093 52.238,372.553C52.238,304.014 197.642,301.282 376.738,301.282Z" style="fill:rgb(176,156,144);"/>
        </g>
        <g transform="matrix(-0.0384263,0.0756442,-0.19017,-0.0966039,650.229,437.151)">
            <path d="M376.738,301.282C555.834,301.282 870.847,308.334 870.847,376.873C870.847,445.412 555.834,452.463 376.738,452.463C197.642,452.463 52.238,441.093 52.238,372.553C52.238,304.014 197.642,301.282 376.738,301.282Z" style="fill:rgb(176,156,144);"/>
        </g>
        <g transform="matrix(-0.00817558,-0.0844499,0.212307,-0.0205534,499.145,369.179)">
            <path d="M376.738,301.282C555.834,301.282 870.847,308.334 870.847,376.873C870.847,445.412 555.834,452.463 376.738,452.463C197.642,452.463 52.238,441.093 52.238,372.553C52.238,304.014 197.642,301.282 376.738,301.282Z" style="fill:rgb(176,156,144);"/>
        </g>
        <g transform="matrix(0.989926,-0.141583,0.141583,0.989926,-86.8776,92.9357)">
            <path d="M556.741,301.357C555.993,302.499 554.942,303.464 553.634,304.118C539.715,311.078 525.876,310.668 511.276,307.196C498.524,304.164 485.121,298.694 470.366,295.005C466.082,293.934 463.474,289.587 464.545,285.304C465.616,281.02 469.963,278.412 474.246,279.483C488.938,283.156 502.281,288.611 514.977,291.63C523.722,293.71 532.119,294.612 540.464,292.175C511.29,273.55 477.569,238.988 470.55,224.95C468.575,221.001 470.178,216.191 474.128,214.217C478.077,212.242 482.886,213.845 484.861,217.795C488.86,225.793 502.509,241.02 518.684,255.415C514.314,221.623 519.822,216.458 521.778,208.633C525.521,193.659 527.767,194.612 529.131,179.613C529.531,175.216 533.425,171.971 537.822,172.37C542.219,172.77 545.465,176.665 545.065,181.062C543.589,197.293 541.351,196.31 537.3,212.514C535.361,220.269 529.63,225.093 536.35,265.411C536.594,266.875 536.423,268.313 535.924,269.604C543.847,275.582 551.788,280.785 559.033,284.408C588.805,299.294 595.511,319.215 598.25,336.882C599.726,346.405 599.454,355.192 602.566,361.417C604.541,365.366 602.937,370.175 598.988,372.15C595.039,374.124 590.23,372.521 588.255,368.572C585.33,362.721 584.363,355.15 583.391,346.671C581.747,332.332 579.421,314.719 556.741,301.357Z" style="fill:rgb(146,118,99);"/>
        </g>
        <g transform="matrix(0.985836,0.167715,-0.167715,0.985836,27.9259,-104.626)">
            <path d="M534.409,500.439C533.42,501.405 532.258,502.577 531.284,503.665C524.558,511.181 515.901,522.465 515.097,524.073C512.837,528.592 510.992,530.845 509.285,532.652C507.741,534.286 506.276,535.235 504.298,539.191C502.324,543.14 497.514,544.743 493.565,542.768C489.616,540.794 488.013,535.985 489.987,532.035C492.195,527.621 494.01,525.433 495.718,523.639C497.252,522.027 498.737,521.015 500.786,516.917C501.721,515.048 511.54,501.734 519.361,492.995C523.39,488.493 527.156,485.205 529.201,484.183C557.345,470.111 562.128,453.222 568.907,434.825C574.19,420.49 580.477,405.329 596.233,389.574C599.355,386.452 604.425,386.452 607.547,389.574C610.669,392.696 610.669,397.765 607.547,400.888C593.515,414.918 588.185,428.53 583.544,441.31C584.71,442.93 585.277,444.985 584.972,447.116C583.35,458.472 581.6,465.393 580.648,470.756C579.54,477.006 580.035,480.494 584.208,488.841C590.971,502.367 593.598,500.913 595.771,516.124C596.396,520.495 593.354,524.551 588.983,525.175C584.612,525.799 580.556,522.758 579.932,518.387C578.133,505.792 575.497,507.196 569.897,495.996C566.052,488.305 564.404,483.251 564.065,478.375C560.534,482.286 556.305,486.082 551.12,489.753C551.539,490.932 551.686,492.226 551.497,493.55C548.963,511.289 548.773,520.556 548.761,522.221L550.141,524.276C550.728,525.61 551.415,528.3 551.911,531.936C553.719,545.209 554.703,575.163 554.812,578.55C554.955,582.963 551.488,586.661 547.075,586.803C542.662,586.946 538.963,583.479 538.821,579.066C538.706,575.519 537.701,541.325 535.633,531.441C534.116,529.847 532.698,527.537 532.634,520.731C532.599,517.016 533.06,510.905 534.409,500.439Z" style="fill:rgb(146,118,99);"/>
        </g>
        <g transform="matrix(1,0,0,1,-7.83965,-125.264)">
            <circle cx="713.116" cy="503.217" r="17.278" style="fill:rgb(188,56,56);"/>
        </g>
    </g>
    <g transform="matrix(0.983039,0,0,-0.983039,31.0229,562.514)">
        <g transform="matrix(0.748994,0,0,1.18855,14.327,-69.981)">
            <path d="M376.738,301.282C555.834,301.282 701.237,304.014 701.237,372.553C701.237,441.093 555.834,452.463 376.738,452.463C197.642,452.463 52.238,441.093 52.238,372.553C52.238,304.014 197.642,301.282 376.738,301.282Z" style="fill:rgb(176,156,144);"/>
        </g>
        <g transform="matrix(0.108153,0,0,0.274268,12.708,274.589)">
            <path d="M376.738,301.282C555.834,301.282 701.237,304.014 701.237,372.553C701.237,441.093 555.834,452.463 376.738,452.463C197.642,452.463 52.238,441.093 52.238,372.553C52.238,304.014 197.642,301.282 376.738,301.282Z" style="fill:rgb(176,156,144);"/>
        </g>
        <g transform="matrix(0.248303,0,0,0.497694,506.32,190.385)">
            <path d="M376.738,301.282C555.834,301.282 870.847,308.334 870.847,376.873C870.847,445.412 555.834,452.463 376.738,452.463C197.642,452.463 52.238,441.093 52.238,372.553C52.238,304.014 197.642,301.282 376.738,301.282Z" style="fill:rgb(176,156,144);"/>
        </g>
        <g transform="matrix(-0.0384263,0.0756442,-0.19017,-0.0966039,650.229,437.151)">
            <path d="M376.738,301.282C555.834,301.282 870.847,308.334 870.847,376.873C870.847,445.412 555.834,452.463 376.738,452.463C197.642,452.463 52.238,441.093 52.238,372.553C52.238,304.014 197.642,301.282 376.738,301.282Z" style="fill:rgb(176,156,144);"/>
        </g>
        <g transform="matrix(-0.00817558,-0.0844499,0.212307,-0.0205534,499.145,369.179)">
            <path d="M376.738,301.282C555.834,301.282 870.847,308.334 870.847,376.873C870.847,445.412 555.834,452.463 376.738,452.463C197.642,452.463 52.238,441.093 52.238,372.553C52.238,304.014 197.642,301.282 376.738,301.282Z" style="fill:rgb(176,156,144);"/>
        </g>
        <g transform="matrix(0.989926,-0.141583,0.141583,0.989926,-86.8776,92.9357)">
            <path d="M556.741,301.357C555.993,302.499 554.942,303.464 553.634,304.118C539.715,311.078 525.876,310.668 511.276,307.196C498.524,304.164 485.121,298.694 470.366,295.005C466.082,293.934 463.474,289.587 464.545,285.304C465.616,281.02 469.963,278.412 474.246,279.483C488.938,283.156 502.281,288.611 514.977,291.63C523.722,293.71 532.119,294.612 540.464,292.175C511.29,273.55 477.569,238.988 470.55,224.95C468.575,221.001 470.178,216.191 474.128,214.217C478.077,212.242 482.886,213.845 484.861,217.795C488.86,225.793 502.509,241.02 518.684,255.415C514.314,221.623 519.822,216.458 521.778,208.633C525.521,193.659 527.767,194.612 529.131,179.613C529.531,175.216 533.425,171.971 537.822,172.37C542.219,172.77 545.465,176.665 545.065,181.062C543.589,197.293 541.351,196.31 537.3,212.514C535.361,220.269 529.63,225.093 536.35,265.411C536.594,266.875 536.423,268.313 535.924,269.604C543.847,275.582 551.788,280.785 559.033,284.408C588.805,299.294 595.511,319.215 598.25,336.882C599.726,346.405 599.454,355.192 602.566,361.417C604.541,365.366 602.937,370.175 598.988,372.15C595.039,374.124 590.23,372.521 588.255,368.572C585.33,362.721 584.363,355.15 583.391,346.671C581.747,332.332 579.421,314.719 556.741,301.357Z" style="fill:rgb(146,118,99);"/>
        </g>
        <g transform="matrix(0.985836,0.167715,-0.167715,0.985836,27.9259,-104.626)">
            <path d="M534.409,500.439C533.42,501.405 532.258,502.577 531.284,503.665C524.558,511.181 515.901,522.465 515.097,524.073C512.837,528.592 510.992,530.845 509.285,532.652C507.741,534.286 506.276,535.235 504.298,539.191C502.324,543.14 497.514,544.743 493.565,542.768C489.616,540.794 488.013,535.985 489.987,532.035C492.195,527.621 494.01,525.433 495.718,523.639C497.252,522.027 498.737,521.015 500.786,516.917C501.721,515.048 511.54,501.734 519.361,492.995C523.39,488.493 527.156,485.205 529.201,484.183C557.345,470.111 562.128,453.222 568.907,434.825C574.19,420.49 580.477,405.329 596.233,389.574C599.355,386.452 604.425,386.452 607.547,389.574C610.669,392.696 610.669,397.765 607.547,400.888C593.515,414.918 588.185,428.53 583.544,441.31C584.71,442.93 585.277,444.985 584.972,447.116C583.35,458.472 581.6,465.393 580.648,470.756C579.54,477.006 580.035,480.494 584.208,488.841C590.971,502.367 593.598,500.913 595.771,516.124C596.396,520.495 593.354,524.551 588.983,525.175C584.612,525.799 580.556,522.758 579.932,518.387C578.133,505.792 575.497,507.196 569.897,495.996C566.052,488.305 564.404,483.251 564.065,478.375C560.534,482.286 556.305,486.082 551.12,489.753C551.539,490.932 551.686,492.226 551.497,493.55C548.963,511.289 548.773,520.556 548.761,522.221L550.141,524.276C550.728,525.61 551.415,528.3 551.911,531.936C553.719,545.209 554.703,575.163 554.812,578.55C554.955,582.963 551.488,586.661 547.075,586.803C542.662,586.946 538.963,583.479 538.821,579.066C538.706,575.519 537.701,541.325 535.633,531.441C534.116,529.847 532.698,527.537 532.634,520.731C532.599,517.016 533.06,510.905 534.409,500.439Z" style="fill:rgb(146,118,99);"/>
        </g>
        <g transform="matrix(1,0,0,1,-7.83965,-125.264)">
            <circle cx="713.116" cy="503.217" r="17.278" style="fill:rgb(188,56,56);"/>
        </g>
    </g>
</svg>
